<?xml version="1.0" standalone="no"?>
<!DOCTYPE svg PUBLIC "-//W3C//DTD SVG 20010904//EN"
 "http://www.w3.org/TR/2001/REC-SVG-20010904/DTD/svg10.dtd">
<svg version="1.0" xmlns="http://www.w3.org/2000/svg"
 width="192.000000pt" height="192.000000pt" viewBox="0 0 192.000000 192.000000"
 preserveAspectRatio="xMidYMid meet">
<metadata>
Created by potrace 1.11, written by Peter Selinger 2001-2013
</metadata>
<g transform="translate(0.000000,192.000000) scale(0.100000,-0.100000)"
fill="#000000" stroke="none">
<path d="M664 1867 c-19 -11 -521 -511 -561 -560 -12 -14 -33 -48 -47 -74 -90
-179 -72 -361 53 -523 47 -60 138 -148 162 -155 10 -4 19 -10 19 -14 0 -12
115 -62 175 -76 135 -31 306 10 413 98 14 12 136 131 269 264 258 257 267 269
223 313 -46 46 -59 38 -331 -233 -305 -303 -318 -312 -469 -312 -87 0 -101 3
-162 33 -90 43 -194 147 -239 237 -29 59 -33 78 -33 144 0 65 5 88 31 142 27
58 63 98 301 337 149 149 276 280 282 292 27 51 -35 115 -86 87z"/>
<path d="M593 1297 c-221 -220 -253 -256 -253 -283 0 -40 29 -66 69 -62 25 2
76 48 281 253 220 220 250 253 250 281 0 38 -27 64 -66 64 -24 0 -67 -39 -281
-253z"/>
<path d="M1222 1455 c-60 -17 -100 -36 -157 -75 -42 -29 -521 -503 -535 -530
-24 -45 31 -110 79 -92 12 4 135 120 274 259 259 258 306 294 394 310 97 16
192 -3 273 -57 71 -47 155 -137 192 -204 30 -56 33 -68 33 -151 0 -150 -7
-160 -335 -490 -244 -245 -280 -285 -280 -311 0 -38 27 -64 66 -64 26 0 70 40
321 293 255 257 294 300 321 357 77 165 63 337 -39 487 -86 126 -234 236 -364
270 -49 13 -192 12 -243 -2z"/>
<path d="M1485 969 c-34 -13 -503 -492 -510 -519 -9 -37 27 -80 66 -80 25 0
66 37 280 247 145 143 252 257 256 272 13 51 -43 100 -92 80z"/>
</g>
</svg>
